<svg xmlns="http://www.w3.org/2000/svg" viewBox="0 0 512 512" fill="none">
  <!-- Background -->
  <rect width="512" height="512" rx="80" fill="#0B1120"/>

  <!-- Lock symbol (representing encryption) -->
  <path d="M256 140C229.49 140 208 161.49 208 188V220H204C189.664 220 178 231.664 178 246V346C178 360.336 189.664 372 204 372H308C322.336 372 334 360.336 334 346V246C334 231.664 322.336 220 308 220H304V188C304 161.49 282.51 140 256 140ZM256 160C271.429 160 284 172.571 284 188V220H228V188C228 172.571 240.571 160 256 160ZM256 270C265.941 270 274 278.059 274 288C274 294.418 270.574 300.017 265.5 302.959V318C265.5 323.247 261.247 327.5 256 327.5C250.753 327.5 246.5 323.247 246.5 318V302.959C241.426 300.017 238 294.418 238 288C238 278.059 246.059 270 256 270Z" fill="#4F46E5"/>

  <!-- Vote checkmark -->
  <path d="M340 180L370 150M370 150L400 180M370 150V220" stroke="#10B981" stroke-width="16" stroke-linecap="round" stroke-linejoin="round"/>

  <!-- Binary digits (representing encryption) -->
  <text x="140" y="430" font-family="monospace" font-size="36" font-weight="bold" fill="#4F46E5" opacity="0.6">101</text>
  <text x="320" y="430" font-family="monospace" font-size="36" font-weight="bold" fill="#10B981" opacity="0.6">010</text>
</svg>
